<svg version="1" xmlns="http://www.w3.org/2000/svg" width="533.333" height="533.333" viewBox="0 0 400.000000 400.000000"><path d="M93.3 51.1C61.3 55.2 41.2 71 32.1 99c-5.5 17.3-5.4 14.9-5.8 93.5-.5 76.3-.2 84 3.9 99.3 10.6 40.8 37.9 57.9 89.2 55.9 28.2-1.1 47.1-8.3 60.1-22.9 5.8-6.6 13.8-22.7 16.4-33.3 3.7-15 4.1-23.1 4.1-93.5 0-55.5-.3-70.4-1.5-78.4-7.4-48.7-34.2-70.1-87.5-69.5-6.3.1-14.3.5-17.7 1zM121.2 96c4.9 1.4 9.3 6.7 11.5 13.8 1.7 5.3 1.8 12 1.8 89.2 0 78.1-.1 83.9-1.8 89.4-3.4 10.8-10.9 15.5-23.1 14.2-9.7-1-12.9-3.9-16.7-15.1-1.1-3.3-1.4-19.5-1.4-88 0-77.3.1-84.5 1.8-89.7 2-6.5 5.8-11.5 10.2-13.4 3.6-1.6 12.6-1.8 17.7-.4zM222 77v24h44v242h64V101h44V53H222v24z"/></svg>